HIERARCHY
ROOT Hips
{
  OFFSET 2.26061 22.2878 23.7974
  CHANNELS 6 Xposition Yposition Zposition Zrotation Xrotation Yrotation
  JOINT LeftUpLeg
  {
    OFFSET 8.64259 1.95398 -2.38835
    CHANNELS 3 Zrotation Xrotation Yrotation
    JOINT LeftLeg
    {
      OFFSET 43.7702 0 0
      CHANNELS 3 Zrotation Xrotation Yrotation
      JOINT LeftFoot
      {
        OFFSET 40.6238 0 0
        CHANNELS 3 Zrotation Xrotation Yrotation
        JOINT LeftToeBase
        {
          OFFSET 12.7242 0 0
          CHANNELS 3 Zrotation Xrotation Yrotation
          End Site
          {
            OFFSET 0 0 0
          }
        }
      }
    }
  }
  JOINT RightUpLeg
  {
    OFFSET -8.2249 1.95398 -2.59336
    CHANNELS 3 Zrotation Xrotation Yrotation
    JOINT RightLeg
    {
      OFFSET 43.5653 0 0
      CHANNELS 3 Zrotation Xrotation Yrotation
      JOINT RightFoot
      {
        OFFSET 40.6238 0 0
        CHANNELS 3 Zrotation Xrotation Yrotation
        JOINT RightToeBase
        {
          OFFSET 12.7242 0 0
          CHANNELS 3 Zrotation Xrotation Yrotation
          End Site
          {
            OFFSET 0 0 0
          }
        }
      }
    }
  }
  JOINT Spine
  {
    OFFSET 0.165834 0.87714 6.61349
    CHANNELS 3 Zrotation Xrotation Yrotation
    JOINT Spine1
    {
      OFFSET 7.38963 1.71661e-005 0
      CHANNELS 3 Zrotation Xrotation Yrotation
      JOINT Spine2
      {
        OFFSET 11.9445 1.14441e-005 0
        CHANNELS 3 Zrotation Xrotation Yrotation
        JOINT Spine3
        {
          OFFSET 14.7254 4.19617e-005 0
          CHANNELS 3 Zrotation Xrotation Yrotation
          JOINT Spine4
          {
            OFFSET 10.9679 0 0
            CHANNELS 3 Zrotation Xrotation Yrotation
            JOINT RightShoulder
            {
              OFFSET 2.46616 -1.6653 3.69651
              CHANNELS 3 Zrotation Xrotation Yrotation
              JOINT RightArm
              {
                OFFSET 13.0012 0 0
                CHANNELS 3 Zrotation Xrotation Yrotation
                JOINT RightForeArm
                {
                  OFFSET 28.7848 1.52588e-005 0
                  CHANNELS 3 Zrotation Xrotation Yrotation
                  JOINT RightHand
                  {
                    OFFSET 26.5688 1.52588e-005 0
                    CHANNELS 3 Zrotation Xrotation Yrotation
                    End Site
                    {
                      OFFSET 0 0 0
                    }
                  }
                }
              }
            }
            JOINT LeftShoulder
            {
              OFFSET 2.38034 -1.29275 -3.7523
              CHANNELS 3 Zrotation Xrotation Yrotation
              JOINT LeftArm
              {
                OFFSET 16.3182 6.10351e-005 0
                CHANNELS 3 Zrotation Xrotation Yrotation
                JOINT LeftForeArm
                {
                  OFFSET 27.0901 0 0
                  CHANNELS 3 Zrotation Xrotation Yrotation
                  JOINT LeftHand
                  {
                    OFFSET 24.5451 1.52588e-005 0
                    CHANNELS 3 Zrotation Xrotation Yrotation
                    End Site
                    {
                      OFFSET 0 0 0
                    }
                  }
                }
              }
            }
            JOINT Neck
            {
              OFFSET 5.0226 -0.0266342 0
              CHANNELS 3 Zrotation Xrotation Yrotation
              JOINT Head
              {
                OFFSET 6.69363 2.86102e-005 0
                CHANNELS 3 Zrotation Xrotation Yrotation
                End Site
                {
                  OFFSET 0 0 0
                }
              }
            }
          }
        }
      }
    }
  }
}
MOTION
Frames:	15
Frame Time:	0.0416667
17.2503 71.756 -301.075 -7.94497 23.3616 36.2043 16.7999 40.8274 -96.7432 -106.022 -59.8513 -3.27556 -63.1603 -61.412 -145.333 -113.318 -24.7349 -67.9898 -5.1601 14.7188 -118.596 -17.4838 3.59405 13.2052 54.1135 15.6787 2.73607 106.56 68.6944 82.3007 -2.74056 -7.95253 -89.903 42.9068 -4.67084 2.84703 31.2407 -4.54107 3.05001 8.64529 -5.31003 1.30878 28.6579 -5.31002 1.30878 137.08 -37.5551 -21.9955 70.2094 20.1827 -43.1028 -132.19 -55.3566 179.959 -24.8695 -9.19865 62.8924 -98.1557 -35.4265 60.8806 -39.6333 53.2531 10.0709 -20.5949 -8.13707 -46.3673 56.3247 -4.44755 -12.111 -6.40468 -10.6676 -16.7992 -22.5876 -10.7374 6.00579 
16.9329 72.5632 -297.982 -3.39122 16.7614 28.666 23.4565 55.5069 -109.405 -74.3235 -78.4479 24.0318 -33.9565 -53.1079 -101.145 -82.2794 15.514 -76.5144 3.32457 19.1745 -120.746 -17.6493 -4.8397 22.4422 57.1778 11.25 1.4508 103.023 68.6446 86.0451 -2.62871 -6.44819 -92.132 39.7563 -6.07736 -1.48095 28.0992 -6.13661 -1.21109 5.47504 -5.35055 -3.24327 25.4877 -5.35055 -3.24327 119.38 -54.843 -57.0466 79.1488 37.9153 -57.3467 -128.909 -26.0954 -178.678 -23.4564 -6.71682 65.5316 -89.7572 -50.5754 79.0521 -38.9052 45.6061 20.5212 -5.02367 -3.05365 -62.2143 56.2098 -1.9621 -7.66273 -15.7721 0.0891173 -1.76135 -5.19971 -0.254008 3.25983 
15.7241 75.4159 -295.082 0.144071 5.54386 17.8524 41.049 75.3791 -124.662 -47.8405 -84.981 38.8306 -6.02176 -37.4077 -59.9549 11.3386 18.1945 -147.401 19.6454 34.3288 -128.076 -1.03682 -14.6709 38.6436 52.3817 2.11961 -2.6849 102.753 68.7803 86.4851 -2.24242 -4.01881 -92.7992 34.9714 -5.94687 -3.45101 23.3097 -6.09285 -3.18545 0.741894 -4.63638 -5.07892 20.7545 -4.6364 -5.07894 86.8403 -55.5063 -104.001 19.708 1.44594 -38.6254 -50.3716 -56.2054 -81.3735 -28.9692 -11.8457 58.9461 -75.5627 -57.7843 100.402 -33.8744 33.5958 21.4835 13.7242 -0.811672 -77.1278 44.9981 1.19845 -1.27943 -15.8787 5.43308 13.238 4.84048 5.50646 -4.11562 
14.1236 83.1495 -290.931 1.82743 -9.4552 3.14433 -177.133 79.847 96.7153 -94.7216 -82.6525 -25.3048 1.34016 -29.8044 -41.4041 25.8711 7.77354 -152.308 17.2639 51.6808 -105.073 -23.4788 -25.2867 8.54695 65.5213 -1.75411 -3.75522 100.777 68.2113 88.0373 -0.602594 -1.99299 -89.9904 30.54 -1.41834 -0.407786 18.8695 -1.4349 -0.344977 -3.66881 -1.23024 -0.815193 16.3438 -1.23025 -0.815207 87.8537 -56.0881 -102.553 -10.2398 -35.6407 -37.7395 -43.6534 -8.6776 -62.2844 -37.1867 -6.04465 15.6119 -91.1639 -58.445 78.814 -30.5173 19.8335 27.721 18.6709 -2.59814 -86.3348 36.0713 2.27978 2.39267 -9.66814 3.1061 9.8488 5.83597 2.43764 -4.93558 
11.381 89.2891 -290.474 1.51413 -27.4333 -13.3494 -150.467 66.9694 71.5005 -80.4919 -64.3366 -15.567 8.88448 -18.7791 -46.5271 11.5019 8.64929 -90.4825 0.738593 74.0481 -79.2938 -31.7046 -28.0575 -7.0642 70.446 -5.461 -4.13086 95.8753 67.4766 92.7542 0.644728 0.994372 -88.159 24.8452 2.30551 3.16879 13.1727 2.44266 3.06433 -9.33756 1.24732 3.7145 10.6751 1.24733 3.71451 92.799 -52.4321 -96.0918 9.1054 -33.0994 -18.5788 -53.2821 3.4506 -75.0194 -41.367 5.45885 -13.9943 -96.9045 -54.7444 69.9785 -29.8977 16.903 29.9698 16.2975 -3.34168 -88.8024 35.3685 2.23418 2.42425 1.69654 1.07064 5.56512 1.94239 0.168993 -3.42809 
10.3954 90.8707 -290.888 -1.02242 -45.7315 -24.9587 -144.878 57.6513 64.5814 -70.8368 -18.1714 -9.05919 42.8175 -9.5975 -25.0535 26.814 9.48097 16.3242 -55.2599 86.7991 -23.9128 -52.865 -31.1674 -16.309 81.3388 -9.07097 -6.50455 83.7108 65.7117 105.521 1.11344 3.49926 -86.9407 19.794 3.83639 5.47029 8.11788 4.07308 5.29662 -14.3403 2.01894 6.367 5.67239 2.01895 6.36699 94.5819 -48.7284 -93.9624 23.6411 -29.0883 -3.3575 -46.9919 10.2204 -88.7735 -46.4919 7.80541 -18.7252 -96.766 -51.9085 69.3176 -32.2059 17.4364 34.4671 16.088 -4.39535 -91.253 36.8509 2.36184 2.51134 4.54094 -0.684933 5.14687 1.32235 -1.66945 -4.48185 
11.6218 92.5599 -287.855 -1.30233 -61.9837 -23.1764 -154.968 50.4974 71.4919 -58.9316 11.9209 -8.25506 51.1084 -5.09381 4.71223 36.4076 6.10026 13.7814 -165.4 77.1721 81.7953 -68.9365 -25.1691 -18.4266 95.6571 -14.9203 -7.9792 69.7674 61.3089 120.089 0.863877 5.25094 -87.1881 16.2959 3.13567 5.14932 4.61902 3.35898 5.00673 -17.8431 1.44617 5.85124 2.16952 1.44618 5.85124 94.2839 -46.3398 -94.8146 29.9285 -28.2156 3.12391 -31.7766 6.77505 -97.9936 -51.786 3.87212 -10.7103 -94.8054 -50.1918 71.6502 -35.9505 17.2054 40.4759 12.6338 -5.32617 -93.5606 34.9063 1.90666 1.45346 5.03824 -1.4438 6.41835 0.571962 -2.68386 -6.42825 
13.6451 94.9685 -282.393 7.2625 -73.0701 -7.52584 -167.009 45.9493 81.4753 -47.6185 11.7166 -4.6876 48.0314 -7.30316 -2.95879 36.277 5.98644 16.2033 177.535 62.388 89.0892 -73.2387 -25.289 -8.03693 108.465 -21.8688 -5.8858 57.1381 54.9215 134.895 0.631969 6.27309 -88.0659 14.2822 2.20204 3.57649 2.60853 2.35722 3.47624 -19.8918 1.02635 4.07213 0.120843 1.02636 4.07213 95.0604 -45.8907 -93.6252 30.2564 -30.3854 3.60425 -24.4349 2.7415 -100.166 -47.9917 0.589159 -5.05146 -94.3947 -47.9011 71.5857 -39.9382 16.3909 45.9247 13.6359 -6.29944 -94.3307 30.0651 1.3753 0.682986 4.74166 -2.45516 6.34452 -0.200733 -3.64164 -7.33206 
15.5999 96.2001 -276.047 13.5974 -78.2971 4.38066 -172.045 40.6589 86.7705 -32.1018 17.6231 -2.99267 42.4251 -10.7627 -7.41487 40.2238 10.4447 20.6861 173.125 48.6661 91.8492 -75.7569 -23.0996 -5.1386 119.472 -24.9383 -3.37067 45.5973 40.3548 148.73 0.783454 6.79631 -88.7517 13.2561 2.15695 2.22798 1.5852 2.2529 2.13091 -20.9416 1.38792 2.77294 -0.928999 1.38792 2.77293 95.24 -44.5689 -93.5323 31.9138 -30.9059 5.00977 -24.5598 5.33747 -103.832 -29.6375 -0.076765 -4.02349 -94.454 -46.6272 71.1137 -42.4707 16.2573 48.7618 11.234 -6.05201 -95.557 37.6947 1.6451 0.387554 6.05379 -3.22556 6.74062 -1.08408 -4.48476 -7.607 
17.1618 96.8594 -269.005 15.1222 -80.6236 9.15568 -173.016 36.5129 89.0797 -19.6738 19.3305 -2.5779 42.3843 -11.1845 -5.39443 40.2067 9.77402 12.4476 173.943 36.7003 93.7346 -76.0212 -16.7495 -5.71163 126.584 -25.6059 -1.94048 38.8132 18.8158 157.816 1.00626 7.0145 -89.1169 12.828 2.42106 1.47628 1.15853 2.48368 1.36825 -21.3817 1.86553 2.13566 -1.36902 1.86554 2.13566 95.8884 -44.8846 -92.4128 31.0659 -31.6052 5.81054 -23.0834 7.94624 -104.38 -28.7662 -0.220265 -3.58008 -94.7666 -46.132 70.4816 -42.8535 15.2466 49.5821 13.2491 -6.51021 -96.1108 34.9869 1.7115 0.951644 7.60938 -3.72882 5.52829 -1.26272 -4.81844 -6.87355 
18.2344 96.3553 -261.311 14.425 -82.6586 8.84736 -172.356 32.1854 88.9892 -13.8007 15.4329 -3.14755 40.7129 -11.2626 -10.9704 46.8738 16.8232 15.6454 176.725 26.126 93.5083 -75.7136 -7.89455 -6.03558 129.634 -26.2447 -0.61757 33.539 -21.3049 161.421 1.02692 7.2139 -89.1944 12.4318 2.42342 1.33106 0.762562 2.47966 1.22307 -21.7794 1.9114 1.99791 -1.76679 1.91141 1.99792 95.2849 -44.9789 -93.3964 30.7688 -31.2633 7.15191 -23.1693 6.00042 -102.127 -23.93 0.164469 -5.47424 -94.1858 -46.883 71.6008 -42.6958 14.4545 47.9085 12.3605 -6.0343 -96.2143 37.5549 1.92585 1.17872 8.86551 -3.48157 5.34411 -1.58669 -4.56277 -6.2518 
19.1907 95.2514 -253.95 15.6318 -84.919 9.22971 -171.946 28.9962 87.6668 -16.2873 16.6708 -3.21702 41.6306 -11.1515 -9.02851 45.2143 15.0063 15.0644 178.59 18.0709 92.4784 -77.017 -1.06005 -5.37074 125.786 -27.1151 -0.884154 5.18285 -71.0431 132.147 0.91765 7.3918 -89.1139 12.0744 2.24295 1.52261 0.404592 2.30778 1.42239 -22.1331 1.68175 2.12626 -2.12048 1.68175 2.12627 94.8251 -45.9043 -94.0056 30.98 -30.3183 9.35057 -21.4985 3.00713 -99.4271 -26.9172 -0.150812 -4.02549 -93.7703 -48.1778 72.6093 -40.8472 12.6804 44.6488 12.5052 -5.3777 -95.3503 36.7685 1.76016 0.830419 8.30539 -3.05271 4.71773 -1.38651 -4.00139 -5.7096 
20.3194 94.0916 -246.886 20.6011 -87.935 14.5132 -171.313 26.9817 87.2666 -27.7055 21.2672 -3.80857 52.9578 -4.17783 3.85862 37.278 6.72328 2.37658 177.962 13.6254 91.4576 -81.9332 -0.799387 -4.0309 113.797 -25.1781 -3.38359 -99.9972 -47.7982 14.631 0.841466 7.60774 -89.1656 11.6442 2.06493 1.44804 -0.0258665 2.12665 1.35573 -22.5627 1.53435 2.00164 -2.55001 1.53434 2.00163 94.8985 -47.4893 -93.6451 30.4606 -29.1116 11.631 -18.9692 -0.933609 -95.2201 -30.9497 -0.461767 -2.77922 -95.2734 -49.6758 70.8065 -38.0543 10.8704 41.4333 12.4337 -4.78004 -94.9337 37.0213 1.82682 0.982442 5.46032 -2.67058 3.50794 1.15574 -3.3967 -4.57146 
21.174 92.1265 -239.907 68.6389 -89.1285 62.6058 -170.62 25.9431 86.707 -39.3917 18.361 -3.67506 62.94 4.66229 7.94069 36.7169 6.22312 -1.42776 178.307 17.0542 92.2328 -91.2247 1.9249 -3.15979 91.5112 -17.6146 -5.78232 -74.9361 -13.9941 4.04585 0.535395 7.74953 -89.1424 11.3636 1.46542 1.56189 -0.307374 1.53273 1.49589 -22.8383 0.928343 1.93 -2.82567 0.928342 1.92999 94.505 -48.9728 -94.0426 30.3865 -26.9683 13.2383 -17.3319 -6.63991 -89.0576 -29.5801 -0.0707084 -4.15926 -96.6249 -51.4213 69.3665 -34.4201 9.7653 36.3769 12.6267 -4.17826 -94.2225 37.6023 1.97708 1.29947 2.62225 -1.75593 1.60042 5.2623 -2.14724 -2.47732 
21.3993 90.8286 -233.396 66.3929 -87.8982 58.6555 -170.892 24.606 84.657 -44.9905 16.2174 -3.08423 66.6671 8.22052 8.16477 40.419 9.21952 1.47697 177.938 26.7852 90.9455 -96.5283 5.3774 -2.53743 65.0477 -7.8182 -4.52087 -24.9125 0.937929 -6.8887 0.077665 7.86948 -88.8265 11.121 0.699381 2.26621 -0.551741 0.798422 2.23325 -23.0707 -0.0138219 2.37157 -3.05809 -0.0138113 2.37158 94.5463 -50.789 -93.7088 30.1116 -24.5256 13.4803 -15.8184 -10.2667 -82.3412 -32.9142 -0.522741 -2.4291 -98.6224 -52.3761 66.8154 -29.0927 10.0748 28.327 13.4584 -3.51469 -92.5912 39.0111 2.67456 2.96455 5.87369 -0.724752 -1.17662 3.93737 -0.533023 -0.188097 
